<?xml version="1.0" encoding="UTF-8" standalone="no"?>
<!-- Generator: Adobe Illustrator 19.0.0, SVG Export Plug-In . SVG Version: 6.00 Build 0)  -->

<svg
   version="1.1"
   id="Capa_1"
   x="0px"
   y="0px"
   viewBox="0 0 32.000001 32.000001"
   xml:space="preserve"
   sodipodi:docname="box.svg"
   width="32"
   height="32"
   inkscape:version="1.2.1 (9c6d41e4, 2022-07-14)"
   xmlns:inkscape="http://www.inkscape.org/namespaces/inkscape"
   xmlns:sodipodi="http://sodipodi.sourceforge.net/DTD/sodipodi-0.dtd"
   xmlns="http://www.w3.org/2000/svg"
   xmlns:svg="http://www.w3.org/2000/svg"><defs
   id="defs47" /><sodipodi:namedview
   id="namedview45"
   pagecolor="#ffffff"
   bordercolor="#000000"
   borderopacity="0.25"
   inkscape:showpageshadow="2"
   inkscape:pageopacity="0.0"
   inkscape:pagecheckerboard="0"
   inkscape:deskcolor="#d1d1d1"
   showgrid="false"
   inkscape:zoom="0.60081468"
   inkscape:cx="-69.072879"
   inkscape:cy="196.39999"
   inkscape:window-width="1280"
   inkscape:window-height="430"
   inkscape:window-x="0"
   inkscape:window-y="880"
   inkscape:window-maximized="0"
   inkscape:current-layer="Capa_1" />
<g
   id="g12"
   transform="matrix(0.08350731,0,0,0.08350731,-0.40083568,-0.40083568)">
	<polygon
   style="fill:#d9ac80"
   points="4.8,98 100.8,49.2 196.4,0 292,49.2 388,98 292,147.2 196.4,196.4 100.8,147.2 "
   id="polygon2" />
	<polygon
   style="fill:#d7baa4"
   points="316,135.2 268,159.6 268,204 294.4,171.6 316,179.6 "
   id="polygon4" />
	<polygon
   style="fill:#a67e4f"
   points="314.4,179.2 294.4,171.6 268,204 268,159.6 196.4,196.4 196.4,392.8 388,294.8 388,98 316,135.2 314.4,136 "
   id="polygon6" />
	<polygon
   style="fill:#926e43"
   points="196.4,196.4 100.8,147.2 4.8,98 4.8,294.8 196.4,392.8 "
   id="polygon8" />
	<polygon
   style="fill:#f2d3ba"
   points="76.8,61.2 268,159.6 314.4,136 316,135.2 124.8,36.8 100.8,49.2 "
   id="polygon10" />
</g>
<g
   id="g14">
</g>
<g
   id="g16">
</g>
<g
   id="g18">
</g>
<g
   id="g20">
</g>
<g
   id="g22">
</g>
<g
   id="g24">
</g>
<g
   id="g26">
</g>
<g
   id="g28">
</g>
<g
   id="g30">
</g>
<g
   id="g32">
</g>
<g
   id="g34">
</g>
<g
   id="g36">
</g>
<g
   id="g38">
</g>
<g
   id="g40">
</g>
<g
   id="g42">
</g>
</svg>
