<?xml version="1.0" encoding="UTF-8" standalone="no"?>
<svg
   height="32"
   viewBox="0 0 1.5 1.5"
   width="32"
   version="1.1"
   id="svg5"
   sodipodi:docname="enable.svg"
   inkscape:version="1.2.1 (9c6d41e4, 2022-07-14)"
   xmlns:inkscape="http://www.inkscape.org/namespaces/inkscape"
   xmlns:sodipodi="http://sodipodi.sourceforge.net/DTD/sodipodi-0.dtd"
   xmlns="http://www.w3.org/2000/svg"
   xmlns:svg="http://www.w3.org/2000/svg">
  <defs
     id="defs9" />
  <sodipodi:namedview
     id="namedview7"
     pagecolor="#ffffff"
     bordercolor="#000000"
     borderopacity="0.25"
     inkscape:showpageshadow="2"
     inkscape:pageopacity="0.0"
     inkscape:pagecheckerboard="0"
     inkscape:deskcolor="#d1d1d1"
     showgrid="false"
     inkscape:zoom="0.4609375"
     inkscape:cx="-90.033898"
     inkscape:cy="256"
     inkscape:window-width="1280"
     inkscape:window-height="430"
     inkscape:window-x="0"
     inkscape:window-y="880"
     inkscape:window-maximized="0"
     inkscape:current-layer="svg5" />
  <g
     id="Glyph"
     transform="matrix(0.0625,0,0,0.0625,-3.7924859e-4,0)">
    <path
       d="m 1,12 a 4,4 0 0 0 4,4 h 7.54 a 6,6 0 1 0 0,-8 H 5 a 4,4 0 0 0 -4,4 z m 12,0 a 4,4 0 1 1 4,4 4,4 0 0 1 -4,-4 z m 4,-2 a 2,2 0 1 1 -2,2 2,2 0 0 1 2,-2 z"
       id="path2" />
  </g>
</svg>
