<?xml version="1.0" encoding="UTF-8" standalone="no"?>
<!-- Generator: Adobe Illustrator 19.0.0, SVG Export Plug-In . SVG Version: 6.00 Build 0)  -->

<svg
   version="1.1"
   id="Capa_1"
   x="0px"
   y="0px"
   viewBox="0 0 32.000004 32.000004"
   xml:space="preserve"
   sodipodi:docname="fullscreen.svg"
   width="32.000004"
   height="32.000004"
   inkscape:version="1.2.1 (9c6d41e4, 2022-07-14)"
   xmlns:inkscape="http://www.inkscape.org/namespaces/inkscape"
   xmlns:sodipodi="http://sodipodi.sourceforge.net/DTD/sodipodi-0.dtd"
   xmlns="http://www.w3.org/2000/svg"
   xmlns:svg="http://www.w3.org/2000/svg"><defs
   id="defs29442" /><sodipodi:namedview
   id="namedview29440"
   pagecolor="#ffffff"
   bordercolor="#000000"
   borderopacity="0.25"
   inkscape:showpageshadow="2"
   inkscape:pageopacity="0.0"
   inkscape:pagecheckerboard="0"
   inkscape:deskcolor="#d1d1d1"
   showgrid="false"
   inkscape:zoom="0.48321049"
   inkscape:cx="-19.660169"
   inkscape:cy="244.2"
   inkscape:window-width="1280"
   inkscape:window-height="430"
   inkscape:window-x="0"
   inkscape:window-y="880"
   inkscape:window-maximized="0"
   inkscape:current-layer="Capa_1" />
<g
   id="g29407"
   transform="scale(0.06552007)">
	<g
   id="g29405">
		<g
   id="g29403">
			<polygon
   points="328.3,441.1 328.3,488.4 488.4,488.4 488.4,328.3 441.1,328.3 441.1,407.8 338.8,305.5 305.5,338.8 407.8,441.1 "
   id="polygon29395" />
			<polygon
   points="488.4,0 328.3,0 328.3,47.3 407.8,47.3 305.5,149.6 338.8,183 441.1,80.6 441.1,160.1 488.4,160.1 "
   id="polygon29397" />
			<polygon
   points="0,488.4 160.1,488.4 160.1,441.1 80.6,441.1 183,338.8 149.6,305.5 47.3,407.8 47.3,328.3 0,328.3 "
   id="polygon29399" />
			<polygon
   points="47.3,160.1 47.3,80.6 149.6,183 183,149.6 80.6,47.3 160.1,47.3 160.1,0 0,0 0,160.1 "
   id="polygon29401" />
		</g>
	</g>
</g>
<g
   id="g29409">
</g>
<g
   id="g29411">
</g>
<g
   id="g29413">
</g>
<g
   id="g29415">
</g>
<g
   id="g29417">
</g>
<g
   id="g29419">
</g>
<g
   id="g29421">
</g>
<g
   id="g29423">
</g>
<g
   id="g29425">
</g>
<g
   id="g29427">
</g>
<g
   id="g29429">
</g>
<g
   id="g29431">
</g>
<g
   id="g29433">
</g>
<g
   id="g29435">
</g>
<g
   id="g29437">
</g>
</svg>
