<?xml version="1.0" encoding="UTF-8" standalone="no"?>
<!-- Generator: Adobe Illustrator 19.0.0, SVG Export Plug-In . SVG Version: 6.00 Build 0)  -->

<svg
   version="1.1"
   id="Capa_1"
   x="0px"
   y="0px"
   viewBox="0 0 32 32"
   xml:space="preserve"
   sodipodi:docname="github.svg"
   width="32"
   height="32"
   inkscape:version="1.2.1 (9c6d41e4, 2022-07-14)"
   xmlns:inkscape="http://www.inkscape.org/namespaces/inkscape"
   xmlns:sodipodi="http://sodipodi.sourceforge.net/DTD/sodipodi-0.dtd"
   xmlns="http://www.w3.org/2000/svg"
   xmlns:svg="http://www.w3.org/2000/svg"><defs
   id="defs41" /><sodipodi:namedview
   id="namedview39"
   pagecolor="#ffffff"
   bordercolor="#000000"
   borderopacity="0.25"
   inkscape:showpageshadow="2"
   inkscape:pageopacity="0.0"
   inkscape:pagecheckerboard="0"
   inkscape:deskcolor="#d1d1d1"
   showgrid="false"
   inkscape:zoom="7.375"
   inkscape:cx="15.932203"
   inkscape:cy="16"
   inkscape:window-width="1280"
   inkscape:window-height="430"
   inkscape:window-x="0"
   inkscape:window-y="880"
   inkscape:window-maximized="0"
   inkscape:current-layer="Capa_1" />
<g
   id="g6"
   transform="matrix(0.0625,0,0,0.0625,0,7.6904545e-6)">
	<g
   id="g4">
		<path
   d="M 255.968,5.329 C 114.624,5.329 0,120.401 0,262.353 c 0,113.536 73.344,209.856 175.104,243.872 12.8,2.368 17.472,-5.568 17.472,-12.384 0,-6.112 -0.224,-22.272 -0.352,-43.712 -71.2,15.52 -86.24,-34.464 -86.24,-34.464 -11.616,-29.696 -28.416,-37.6 -28.416,-37.6 -23.264,-15.936 1.728,-15.616 1.728,-15.616 25.696,1.824 39.2,26.496 39.2,26.496 22.848,39.264 59.936,27.936 74.528,21.344 2.304,-16.608 8.928,-27.936 16.256,-34.368 -56.832,-6.496 -116.608,-28.544 -116.608,-127.008 0,-28.064 9.984,-51.008 26.368,-68.992 -2.656,-6.496 -11.424,-32.64 2.496,-68 0,0 21.504,-6.912 70.4,26.336 20.416,-5.696 42.304,-8.544 64.096,-8.64 21.728,0.128 43.648,2.944 64.096,8.672 48.864,-33.248 70.336,-26.336 70.336,-26.336 13.952,35.392 5.184,61.504 2.56,68 16.416,17.984 26.304,40.928 26.304,68.992 0,98.72 -59.84,120.448 -116.864,126.816 9.184,7.936 17.376,23.616 17.376,47.584 0,34.368 -0.32,62.08 -0.32,70.496 0,6.88 4.608,14.88 17.6,12.352 C 438.72,472.145 512,375.857 512,262.353 512,120.401 397.376,5.329 255.968,5.329 Z"
   id="path2" />
	</g>
</g>
<g
   id="g8">
</g>
<g
   id="g10">
</g>
<g
   id="g12">
</g>
<g
   id="g14">
</g>
<g
   id="g16">
</g>
<g
   id="g18">
</g>
<g
   id="g20">
</g>
<g
   id="g22">
</g>
<g
   id="g24">
</g>
<g
   id="g26">
</g>
<g
   id="g28">
</g>
<g
   id="g30">
</g>
<g
   id="g32">
</g>
<g
   id="g34">
</g>
<g
   id="g36">
</g>
</svg>
