<?xml version="1.0" encoding="UTF-8" standalone="no"?>
<!-- Generator: Adobe Illustrator 25.4.1, SVG Export Plug-In . SVG Version: 6.00 Build 0)  -->

<svg
   version="1.1"
   id="Capa_1"
   x="0px"
   y="0px"
   viewBox="0 0 32 32"
   xml:space="preserve"
   width="32"
   height="32"
   sodipodi:docname="gitlab.svg"
   inkscape:version="1.2.1 (9c6d41e4, 2022-07-14)"
   xmlns:inkscape="http://www.inkscape.org/namespaces/inkscape"
   xmlns:sodipodi="http://sodipodi.sourceforge.net/DTD/sodipodi-0.dtd"
   xmlns="http://www.w3.org/2000/svg"
   xmlns:svg="http://www.w3.org/2000/svg"><defs
   id="defs14" /><sodipodi:namedview
   id="namedview12"
   pagecolor="#ffffff"
   bordercolor="#000000"
   borderopacity="0.25"
   inkscape:showpageshadow="2"
   inkscape:pageopacity="0.0"
   inkscape:pagecheckerboard="0"
   inkscape:deskcolor="#d1d1d1"
   showgrid="false"
   inkscape:zoom="0.4609375"
   inkscape:cx="-90.033898"
   inkscape:cy="256"
   inkscape:window-width="1280"
   inkscape:window-height="430"
   inkscape:window-x="0"
   inkscape:window-y="880"
   inkscape:window-maximized="0"
   inkscape:current-layer="Capa_1" />
<g
   id="g9"
   transform="matrix(0.06250005,0,0,0.06250005,-1.28e-5,-2.8425013e-5)">
	<path
   id="path66_17_"
   style="fill:#ffa100"
   d="m 29.653,201.648 v 0 L 0.957,289.816 c -2.599,8.006 0.208,16.843 7.07,21.834 L 255.999,491.833 176.633,335.974 Z" />
	<path
   id="path66_6_"
   style="fill:#ffa100"
   d="m 482.347,201.648 v 0 l 28.696,88.168 c 2.599,8.006 -0.208,16.843 -7.07,21.834 L 256.001,491.832 343.213,306.978 Z" />
	<path
   id="path58_18_"
   style="fill:#ff6d18"
   d="m 256,491.832 -0.001,-178.6 -94.302,-111.585 -65.97,-32.822 -66.074,32.822 z" />
	<path
   id="path58_17_"
   style="fill:#ff6d18"
   d="m 256,491.832 10e-4,-189.402 94.302,-100.783 71.367,-32.822 60.677,32.822 z" />
	<path
   id="path50_10_"
   style="fill:#fc3819"
   d="m 256,491.832 v 0 L 350.302,201.647 H 161.698 Z" />
	<path
   id="path74_3_"
   style="fill:#fc3819"
   d="M 29.654,201.65 H 161.802 L 104.929,26.874 c -2.911,-8.942 -15.596,-8.942 -18.611,0 z" />
	<path
   id="path86_3_"
   style="fill:#fc3819"
   d="M 482.346,201.65 H 350.198 L 406.967,26.874 c 2.911,-8.942 15.596,-8.942 18.611,0 z" />
</g>















</svg>
