<?xml version="1.0" encoding="UTF-8" standalone="no"?>
<svg
   id="Layer_1"
   enable-background="new 0 0 512 512"
   height="32"
   viewBox="0 0 32 32"
   width="32"
   version="1.1"
   sodipodi:docname="glamorousBookmark.svg"
   inkscape:version="1.2.1 (9c6d41e4, 2022-07-14)"
   xmlns:inkscape="http://www.inkscape.org/namespaces/inkscape"
   xmlns:sodipodi="http://sodipodi.sourceforge.net/DTD/sodipodi-0.dtd"
   xmlns="http://www.w3.org/2000/svg"
   xmlns:svg="http://www.w3.org/2000/svg">
  <defs
     id="defs53572" />
  <sodipodi:namedview
     id="namedview53570"
     pagecolor="#ffffff"
     bordercolor="#000000"
     borderopacity="0.25"
     inkscape:showpageshadow="2"
     inkscape:pageopacity="0.0"
     inkscape:pagecheckerboard="0"
     inkscape:deskcolor="#d1d1d1"
     showgrid="false"
     inkscape:zoom="0.4609375"
     inkscape:cx="-22.779661"
     inkscape:cy="257.08475"
     inkscape:window-width="1280"
     inkscape:window-height="747"
     inkscape:window-x="1920"
     inkscape:window-y="1065"
     inkscape:window-maximized="1"
     inkscape:current-layer="Layer_1" />
  <g
     id="g53567"
     transform="matrix(0.0625,0,0,0.06250094,0,-2.5813634e-4)">
    <g
       id="g53525">
      <path
         d="m 163.46,52.897 v 58.35 l -10,20 10,20 v 246.35 l -117.83,-10 v -236.35 l 10,-20 -10,-20 v -58.35 c 0,-2.89 2.34,-5.24 5.23,-5.24 h 107.36 c 2.89,0 5.24,2.35 5.24,5.24 z"
         fill="#ff6b81"
         id="path53507" />
      <path
         d="m 163.46,52.897 v 58.35 l -10,20 10,20 v 309.87 H 45.63 v -33 h 76.85 c 11.03,0 19.98,-8.95 19.98,-19.98 V 52.897 c 0,-2.89 -2.35,-5.24 -5.24,-5.24 h 21 c 2.89,0 5.24,2.35 5.24,5.24 z"
         fill="#ed2061"
         id="path53509" />
      <path
         d="m 163.46,387.597 v 59.51 l -117.83,10 v -69.51 z"
         fill="#56788b"
         id="path53511" />
      <path
         d="m 45.63,111.247 h 117.83 v 40 H 45.63 Z"
         fill="#fdeda5"
         id="path53513" />
      <path
         d="m 142.46,111.247 h 21 v 40 h -21 z"
         fill="#fbdf63"
         id="path53515" />
      <path
         d="m 142.46,387.597 h 21 v 59.51 H 45.63 v -18.99 h 76.85 c 11.03,0 19.98,-8.95 19.98,-19.98 z"
         fill="#415e6f"
         id="path53517" />
      <g
         fill="#ffffff"
         id="g53523">
        <path
           d="m 87.187,189.858 c -4.142,0 -7.5,3.358 -7.5,7.5 V 343.67 c 0,4.142 3.358,7.5 7.5,7.5 4.142,0 7.5,-3.358 7.5,-7.5 V 197.358 c 0,-4.142 -3.358,-7.5 -7.5,-7.5 z"
           id="path53519" />
        <path
           d="m 121.897,213.014 c -4.142,0 -7.5,3.358 -7.5,7.5 v 100 c 0,4.142 3.358,7.5 7.5,7.5 4.142,0 7.5,-3.358 7.5,-7.5 v -100 c 0,-4.142 -3.357,-7.5 -7.5,-7.5 z"
           id="path53521" />
      </g>
    </g>
    <g
       id="g53543">
      <path
         d="m 459.34,354.497 -19,13.13 -28.89,19.97 -65.36,-0.56 -62.88,-218.86 4.2,-20.15 -15.25,-18.29 -16.25,-56.57 c -0.79,-2.75 0.8,-5.62 3.55,-6.4 l 76.82,-22.07 26.48,-7.61 c 2.75,-0.79 5.61,0.79 6.4,3.54 l 16.26,56.58 -4.73,18.34 15.77,20.09 z"
         fill="#d4e16c"
         id="path53527" />
      <path
         d="m 459.34,354.497 -19,13.13 -91.42,-315.95 c -1.56,-5.41 -7.22,-8.54 -12.64,-6.98 l 26.48,-7.61 c 2.75,-0.79 5.61,0.79 6.4,3.54 l 16.26,56.58 -4.73,18.34 15.77,20.09 z"
         fill="#a4ce39"
         id="path53529" />
      <path
         d="m 396.46,135.637 -21.46,6.17 -91.79,26.37 -11.05,-38.44 91.72,-26.34 21.54,-6.19 z"
         fill="#fdeda5"
         id="path53531" />
      <path
         d="m 473.06,421.007 -108.27,31.1 -6.53,-22.72 -12.17,-42.35 92.2,-26.49 21.05,-6.05 17.27,60.1 c 0.78,2.75 -0.8,5.62 -3.55,6.41 z"
         fill="#56788b"
         id="path53533" />
      <path
         d="m 473.06,421.007 -108.27,31.1 -6.53,-22.72 71.68,-21.67 c 11.21,-3.39 17.61,-15.17 14.36,-26.42 l -6.01,-20.75 21.05,-6.05 17.27,60.1 c 0.78,2.75 -0.8,5.62 -3.55,6.41 z"
         fill="#415e6f"
         id="path53535" />
      <g
         fill="#ffffff"
         id="g53541">
        <path
           d="m 344.333,197.561 c -1.144,-3.981 -5.3,-6.283 -9.279,-5.138 -3.981,1.144 -6.281,5.298 -5.138,9.279 l 40.401,140.622 c 0.945,3.29 3.945,5.431 7.205,5.431 0.686,0 1.383,-0.095 2.074,-0.293 3.981,-1.144 6.281,-5.298 5.138,-9.279 z"
           id="path53537" />
        <path
           d="m 411.701,306.343 -27.614,-96.112 c -1.144,-3.981 -5.297,-6.283 -9.28,-5.138 -3.981,1.144 -6.281,5.298 -5.137,9.279 l 27.614,96.112 c 0.945,3.29 3.945,5.431 7.205,5.431 0.686,0 1.383,-0.095 2.074,-0.293 3.982,-1.143 6.282,-5.298 5.138,-9.279 z"
           id="path53539" />
      </g>
    </g>
    <g
       id="g53559">
      <path
         d="m 261.29,93.137 v 353.97 H 163.46 V 87.657 h 92.35 c 3.03,0 5.48,2.45 5.48,5.48 z"
         fill="#f9d11f"
         id="path53545" />
      <path
         d="m 261.29,93.137 v 353.97 h -21 V 93.137 c 0,-3.03 -2.45,-5.48 -5.48,-5.48 h 21 c 3.03,0 5.48,2.45 5.48,5.48 z"
         fill="#ffa402"
         id="path53547" />
      <path
         d="m 261.29,387.597 v 69.51 l -97.83,-10 v -59.51 z"
         fill="#56788b"
         id="path53549" />
      <path
         d="m 240.29,387.597 h 21 v 59.51 H 143.46 v -18.99 h 76.85 c 11.03,0 19.98,-8.95 19.98,-19.98 z"
         fill="#415e6f"
         id="path53551" />
      <path
         d="m 163.46,151.247 h 97.83 v 40 h -97.83 z"
         fill="#fdeda5"
         id="path53553" />
      <path
         d="m 240.29,151.247 h 21 v 40 h -21 z"
         fill="#fbdf63"
         id="path53555" />
      <path
         d="m 212.733,228.858 c -4.142,0 -7.5,3.358 -7.5,7.5 V 342.67 c 0,4.142 3.358,7.5 7.5,7.5 4.142,0 7.5,-3.358 7.5,-7.5 V 236.358 c 0,-4.142 -3.358,-7.5 -7.5,-7.5 z"
         fill="#ffffff"
         id="path53557" />
    </g>
    <path
       d="m 512,461.117 c 0,7.73 -6.27,14 -14,14 H 14 c -3.86,0 -7.36,-1.57 -9.9,-4.1 -2.53,-2.53 -4.1,-6.03 -4.1,-9.9 0,-7.74 6.27,-14.01 14,-14.01 h 484 c 3.86,0 7.36,1.57 9.9,4.1 2.53,2.54 4.1,6.04 4.1,9.91 z"
       fill="#d77d41"
       id="path53561" />
    <path
       d="m 507.9,451.207 c 2.53,2.54 4.1,6.04 4.1,9.91 0,7.73 -6.27,14 -14,14 h -27 c 7.73,0 14,-6.27 14,-14 0,-3.87 -1.57,-7.37 -4.1,-9.91 -2.54,-2.53 -6.04,-4.1 -9.9,-4.1 h 27 c 3.86,0 7.36,1.57 9.9,4.1 z"
       fill="#b5612a"
       id="path53563" />
    <path
       d="m 375,141.807 -11.12,-38.41 21.54,-6.19 11.04,38.43 z"
       fill="#fbdf63"
       id="path53565" />
  </g>
</svg>
