<?xml version="1.0" encoding="UTF-8" standalone="no"?>
<svg
   id="Capa_1"
   enable-background="new 0 0 512 512"
   height="32"
   viewBox="0 0 32 32"
   width="32"
   version="1.1"
   sodipodi:docname="glamorousCloudPaused.svg"
   inkscape:version="1.2.1 (9c6d41e4, 2022-07-14)"
   xmlns:inkscape="http://www.inkscape.org/namespaces/inkscape"
   xmlns:sodipodi="http://sodipodi.sourceforge.net/DTD/sodipodi-0.dtd"
   xmlns="http://www.w3.org/2000/svg"
   xmlns:svg="http://www.w3.org/2000/svg">
  <defs
     id="defs3083" />
  <sodipodi:namedview
     id="namedview3081"
     pagecolor="#ffffff"
     bordercolor="#000000"
     borderopacity="0.25"
     inkscape:showpageshadow="2"
     inkscape:pageopacity="0.0"
     inkscape:pagecheckerboard="0"
     inkscape:deskcolor="#d1d1d1"
     showgrid="false"
     inkscape:zoom="7.375"
     inkscape:cx="15.932203"
     inkscape:cy="16"
     inkscape:window-width="1280"
     inkscape:window-height="430"
     inkscape:window-x="0"
     inkscape:window-y="880"
     inkscape:window-maximized="0"
     inkscape:current-layer="layer3" />
  <g
     inkscape:groupmode="layer"
     id="layer4"
     inkscape:label="cloud">
    <path
       d="M 434.931,227.069 C 428.207,184.032 390.897,151 346,151 c -16.89,0 -33.12,4.673 -47.197,13.389 C 277.387,128.397 238.832,106 196,106 129.833,106 76,159.833 76,226 c 0,0.41 0,0.835 0.015,1.245 C 33.49,234.408 0,271.483 0,316 c 0,49.629 41.371,90 91,90 h 330 c 49.629,0 91,-40.371 91,-90 0,-44.897 -34.032,-82.207 -77.069,-88.931 z"
       id="path3076"
       transform="scale(0.0625)" />
  </g>
  <g
     inkscape:groupmode="layer"
     id="layer3"
     inkscape:label="pause"
     transform="translate(-0.49152517)">
    <rect
       style="fill:#ffffff;fill-opacity:1;stroke-width:3.77953;stroke-linecap:square;stroke-linejoin:round;stop-color:#000000"
       id="rect3280"
       width="3.3898306"
       height="10.711864"
       x="11.525423"
       y="11.796611" />
    <rect
       style="fill:#ffffff;fill-opacity:1;stroke-width:3.77953;stroke-linecap:square;stroke-linejoin:round;stop-color:#000000"
       id="rect3853"
       width="3.3898306"
       height="10.711864"
       x="18.067797"
       y="11.796611" />
  </g>
</svg>
