<?xml version="1.0" encoding="UTF-8" standalone="no"?>
<svg
   id="Capa_1"
   enable-background="new 0 0 512 512"
   height="32"
   viewBox="0 0 32 32"
   width="32"
   version="1.1"
   sodipodi:docname="escape.svg"
   inkscape:version="1.2.1 (9c6d41e4, 2022-07-14)"
   xmlns:inkscape="http://www.inkscape.org/namespaces/inkscape"
   xmlns:sodipodi="http://sodipodi.sourceforge.net/DTD/sodipodi-0.dtd"
   xmlns="http://www.w3.org/2000/svg"
   xmlns:svg="http://www.w3.org/2000/svg">
  <defs
     id="defs15" />
  <sodipodi:namedview
     id="namedview13"
     pagecolor="#ffffff"
     bordercolor="#000000"
     borderopacity="0.25"
     inkscape:showpageshadow="2"
     inkscape:pageopacity="0.0"
     inkscape:pagecheckerboard="0"
     inkscape:deskcolor="#d1d1d1"
     showgrid="false"
     inkscape:zoom="1"
     inkscape:cx="-90.5"
     inkscape:cy="96"
     inkscape:window-width="1280"
     inkscape:window-height="430"
     inkscape:window-x="0"
     inkscape:window-y="880"
     inkscape:window-maximized="0"
     inkscape:current-layer="Capa_1" />
  <g
     id="g10"
     transform="scale(0.0625)">
    <path
       d="m 143.469,189.039 c 12.407,0 22.5,-10.094 22.5,-22.5 0,-12.406 -10.093,-22.5 -22.5,-22.5 H 95.875 c -12.407,0 -22.5,10.094 -22.5,22.5 v 25.425 c 0,4.143 3.358,7.5 7.5,7.5 4.142,0 7.5,-3.357 7.5,-7.5 v -25.425 c 0,-4.136 3.364,-7.5 7.5,-7.5 h 47.594 c 4.136,0 7.5,3.364 7.5,7.5 0,4.136 -3.364,7.5 -7.5,7.5 h -32.594 c -4.142,0 -7.5,3.357 -7.5,7.5 v 26.477 c 0,4.143 3.358,7.5 7.5,7.5 h 29.084 c 4.136,0 7.5,3.364 7.5,7.5 0,4.136 -3.364,7.5 -7.5,7.5 h -29.084 c -4.142,0 -7.5,3.357 -7.5,7.5 v 26.477 c 0,4.143 3.358,7.5 7.5,7.5 h 32.594 c 4.136,0 7.5,3.364 7.5,7.5 0,4.136 -3.364,7.5 -7.5,7.5 H 95.875 c -4.136,0 -7.5,-3.364 -7.5,-7.5 v -52.528 c 0,-4.143 -3.358,-7.5 -7.5,-7.5 -4.142,0 -7.5,3.357 -7.5,7.5 v 52.528 c 0,12.406 10.093,22.5 22.5,22.5 h 47.594 c 12.407,0 22.5,-10.094 22.5,-22.5 0,-12.406 -10.093,-22.5 -22.5,-22.5 h -25.094 v -11.477 h 21.584 c 12.407,0 22.5,-10.094 22.5,-22.5 0,-12.406 -10.093,-22.5 -22.5,-22.5 h -21.584 v -11.477 z"
       id="path2" />
    <path
       d="m 380.217,188.52 c 6.917,0 13.58,2.032 19.271,5.878 4.979,3.364 10.97,4.587 16.874,3.446 5.9,-1.143 11.002,-4.515 14.367,-9.495 6.944,-10.28 4.231,-24.295 -6.049,-31.24 -13.16,-8.89 -28.535,-13.589 -44.463,-13.589 -43.834,0 -79.496,35.662 -79.496,79.496 0,24.898 11.943,48.703 31.948,63.676 3.316,2.48 8.016,1.805 10.499,-1.511 2.481,-3.316 1.806,-8.017 -1.511,-10.499 -16.483,-12.336 -25.937,-31.168 -25.937,-51.666 0,-35.563 28.933,-64.496 64.496,-64.496 12.924,0 25.396,3.811 36.065,11.019 3.428,2.315 4.332,6.987 2.017,10.414 -1.121,1.66 -2.822,2.784 -4.789,3.165 -1.97,0.379 -3.966,-0.029 -5.624,-1.148 -8.18,-5.527 -17.747,-8.449 -27.669,-8.449 -27.292,0 -49.496,22.204 -49.496,49.496 0,27.292 22.204,49.496 49.496,49.496 11.921,-0.258 22.181,-3.988 30.159,-13.407 2.656,-3.168 7.397,-3.585 10.565,-0.932 3.17,2.657 3.587,7.397 0.932,10.566 -9.176,11.287 -25.146,19.027 -41.656,18.772 -3.561,0 -7.131,-0.293 -10.612,-0.872 -4.087,-0.68 -7.948,2.083 -8.628,6.169 -0.68,4.086 2.082,7.948 6.169,8.628 4.291,0.714 8.689,1.075 13.071,1.075 20.822,-0.022 39.809,-8.31 53.151,-24.137 7.969,-9.507 6.718,-23.727 -2.791,-31.698 -9.511,-7.968 -23.729,-6.714 -31.696,2.791 -3.642,4.616 -10.682,8.107 -18.664,8.044 -19.021,0 -34.496,-15.475 -34.496,-34.496 0,-19.021 15.475,-34.496 34.497,-34.496 z"
       id="path4" />
    <path
       d="m 236.061,257.512 c -9.04,0 -17.657,-3.554 -23.053,-9.508 -4.036,-4.452 -9.564,-7.067 -15.567,-7.362 -6.008,-0.294 -11.761,1.766 -16.213,5.801 -4.454,4.035 -7.069,9.563 -7.364,15.567 -0.295,6.002 1.765,11.761 5.801,16.214 13.989,15.436 34.544,24.288 56.396,24.288 28.026,0 51.615,-18.189 56.09,-43.251 3.425,-19.182 -4.866,-44.086 -38.406,-56.456 -11.876,-4.381 -23.141,-9.14 -28.402,-11.411 0.316,-0.666 1.266,-1.469 3.165,-2.04 11.588,-3.487 23.284,5.368 23.811,5.774 9.545,7.822 23.693,6.467 31.578,-3.041 3.837,-4.626 5.643,-10.469 5.084,-16.453 -0.558,-5.984 -3.413,-11.393 -8.039,-15.229 -3.064,-2.541 -30.933,-24.524 -65.413,-14.139 -18.845,5.677 -32.196,20.658 -34.844,39.1 -2.527,17.607 5.303,34.891 19.95,44.03 3.281,2.047 21.155,9.489 37.539,15.629 6.082,2.242 9.486,5.268 9.678,6.327 -0.394,2.21 -4.673,6.16 -11.791,6.16 z m 7.339,-26.548 c -18.841,-7.061 -33,-13.25 -34.825,-14.294 -9.458,-5.902 -14.699,-17.627 -13.042,-29.174 1.809,-12.599 11.128,-22.894 24.323,-26.867 26.989,-8.136 49.08,9.306 51.511,11.322 1.542,1.278 2.493,3.081 2.68,5.076 0.186,1.994 -0.416,3.941 -1.695,5.483 -1.874,2.251 -6.555,3.88 -10.633,0.927 -0.759,-0.55 -18.135,-14.286 -37.536,-8.447 -11.349,3.418 -13.433,12.068 -13.801,14.638 -0.748,5.207 1.062,10.373 5.089,13.511 4.344,3.385 18.095,8.005 33.084,13.738 31.276,11.536 29.974,33.34 28.831,39.747 -3.196,17.897 -20.576,30.888 -41.325,30.888 -17.626,0 -34.13,-7.057 -45.281,-19.36 -1.345,-1.484 -2.032,-3.404 -1.934,-5.405 0.098,-2.001 0.97,-3.844 2.455,-5.189 1.391,-1.261 3.163,-1.942 5.027,-1.942 1.584,0.044 3.239,0.467 5.566,2.463 8.191,9.038 20.963,14.435 34.167,14.435 13.254,0 24.671,-7.963 26.557,-18.523 1.672,-9.367 -5.526,-17.979 -19.218,-23.027 z"
       id="path6" />
    <path
       d="M 464.5,33 H 402 c -4.143,0 -7.5,3.357 -7.5,7.5 0,4.143 3.357,7.5 7.5,7.5 h 62.5 c 17.921,0 32.5,14.579 32.5,32.5 v 285 c 0,17.921 -14.579,32.5 -32.5,32.5 H 224.173 c -4.142,0 -7.5,3.357 -7.5,7.5 0,4.143 3.358,7.5 7.5,7.5 H 464.5 c 12.564,0 23.996,-4.913 32.5,-12.906 V 431.5 c 0,17.921 -14.579,32.5 -32.5,32.5 H 47.5 C 29.58,464 15,449.421 15,431.5 V 400.094 C 23.504,408.087 34.936,413 47.5,413 h 141.673 c 4.142,0 7.5,-3.357 7.5,-7.5 0,-4.143 -3.358,-7.5 -7.5,-7.5 H 47.5 C 29.58,398 15,383.421 15,365.5 V 80.5 C 15,62.579 29.58,48 47.5,48 H 367 c 4.143,0 7.5,-3.357 7.5,-7.5 0,-4.143 -3.357,-7.5 -7.5,-7.5 H 47.5 C 21.309,33 0,54.309 0,80.5 v 351 C 0,457.691 21.309,479 47.5,479 h 417 c 26.191,0 47.5,-21.309 47.5,-47.5 V 80.5 C 512,54.309 490.691,33 464.5,33 Z"
       id="path8" />
  </g>
</svg>
