<?xml version="1.0" encoding="UTF-8" standalone="no"?>
<!-- Created with Inkscape (http://www.inkscape.org/) -->

<!-- Pharo_Logo_v3.0.svg -->

<svg
   version="1.1"
   width="32"
   height="32"
   id="Pharo"
   sodipodi:docname="pharo.svg"
   inkscape:version="1.2.1 (9c6d41e4, 2022-07-14)"
   xmlns:inkscape="http://www.inkscape.org/namespaces/inkscape"
   xmlns:sodipodi="http://sodipodi.sourceforge.net/DTD/sodipodi-0.dtd"
   xmlns:xlink="http://www.w3.org/1999/xlink"
   xmlns="http://www.w3.org/2000/svg"
   xmlns:svg="http://www.w3.org/2000/svg">
  <sodipodi:namedview
     id="namedview57904"
     pagecolor="#ffffff"
     bordercolor="#000000"
     borderopacity="0.25"
     inkscape:showpageshadow="2"
     inkscape:pageopacity="0.0"
     inkscape:pagecheckerboard="0"
     inkscape:deskcolor="#d1d1d1"
     showgrid="false"
     inkscape:zoom="13.587641"
     inkscape:cx="17.442321"
     inkscape:cy="12.253782"
     inkscape:window-width="1673"
     inkscape:window-height="861"
     inkscape:window-x="0"
     inkscape:window-y="880"
     inkscape:window-maximized="0"
     inkscape:current-layer="Pharo" />
  <defs
     id="defs_logo_Pharo">
    <linearGradient
       x1="0"
       y1="0"
       x2="1"
       y2="0"
       id="lG_fire"
       gradientUnits="userSpaceOnUse"
       gradientTransform="matrix(0,12.7,-12.7,0,640,65)"
       spreadMethod="pad">
      <stop
         id="stop3677"
         style="stop-color:#f7931e;stop-opacity:1"
         offset="0" />
      <stop
         id="stop3679"
         style="stop-color:#ed1c24;stop-opacity:1"
         offset="1" />
    </linearGradient>
    <linearGradient
       x1="0.40000001"
       y1="0"
       x2="1"
       y2="0"
       id="lG_column"
       gradientUnits="userSpaceOnUse"
       gradientTransform="matrix(10.76,-145.87,145.87,10.76,631.57,223.43)"
       spreadMethod="pad">
      <stop
         id="stop4289"
         style="stop-color:#2b98d8;stop-opacity:1"
         offset="0" />
      <stop
         id="stop4291"
         style="stop-color:#a10b0b;stop-opacity:1"
         offset="1" />
    </linearGradient>
    <linearGradient
       inkscape:collect="always"
       xlink:href="#lG_column"
       id="linearGradient58023"
       gradientUnits="userSpaceOnUse"
       gradientTransform="matrix(10.76,-145.87,145.87,10.76,631.57,223.43)"
       x1="0.40000001"
       y1="0"
       x2="1"
       y2="0"
       spreadMethod="pad" />
    <linearGradient
       inkscape:collect="always"
       xlink:href="#lG_column"
       id="linearGradient58025"
       gradientUnits="userSpaceOnUse"
       gradientTransform="matrix(10.76,-145.87,145.87,10.76,631.57,223.43)"
       x1="0.40000001"
       y1="0"
       x2="1"
       y2="0"
       spreadMethod="pad" />
    <linearGradient
       inkscape:collect="always"
       xlink:href="#lG_column"
       id="linearGradient58027"
       gradientUnits="userSpaceOnUse"
       gradientTransform="matrix(10.76,-145.87,145.87,10.76,631.57,223.43)"
       x1="0.40000001"
       y1="0"
       x2="1"
       y2="0"
       spreadMethod="pad" />
    <linearGradient
       inkscape:collect="always"
       xlink:href="#lG_column"
       id="linearGradient58029"
       gradientUnits="userSpaceOnUse"
       gradientTransform="matrix(10.76,-145.87,145.87,10.76,631.57,223.43)"
       x1="0.40000001"
       y1="0"
       x2="1"
       y2="0"
       spreadMethod="pad" />
  </defs>
  <g
     id="logo"
     transform="matrix(0.21945735,0,0,0.21945735,0.97704711,-11.898553)"
     style="display:inline">
    <g
       id="icon">
      <g
         id="beacon"
         transform="translate(-571.22)">
        <path
           d="M 628.58,64.64 V 83.86 H 651.3 V 63.72 l -11.16,-2.74 z"
           id="fire"
           style="fill:url(#lG_fire);stroke:none" />
        <path
           d="m 627.39,67.47 c 0.23,-0.63 1.25,-1.52 2.83,-2.36 2.32,-1.24 5.84,-2.38 9.79,-2.43 6.63,-0.1 12.1,2.87 12.7,4.41 h 0.06 v -0.01 c -0.06,-3.58 -5.2,-10.05 -11.7,-10.26 l -3.15,0.11 c -6.05,0.62 -10.64,7.12 -10.59,10.53 v 0.01 z"
           id="cap"
           style="fill:#164c6c;fill-opacity:1;fill-rule:nonzero;stroke:none" />
        <g
           id="column"
           style="fill:url(#linearGradient58029);stroke:none">
          <path
             d="m 635.55,75.19 c -6.21,0.44 -11.87,2.99 -11.87,2.99 v 0 5.38 c 0,0 -0.03,1.36 2.63,2.25 v 0 l 0.13,5.46 c -7.22,0.95 -12.04,2.56 -12.01,4.31 v 0 c 0,0.44 2.25,3.62 2.25,3.62 v 0 c 0,0 0.78,0.96 1.72,1.1 v 0 c 0.94,0.14 2.58,0.95 3.64,1.82 v 0 c 1.07,0.87 1.95,2.52 1.97,3.69 v 0 c 0.02,1.16 1.2,2.1 2.62,2.07 v 0 l 3.39,-0.05 c -4.06,2.31 -5.35,4.76 -6.55,6.46 v 0 c -1.24,1.74 -2.28,16.8 -2.28,16.8 v 0 c 0,0 0.57,-1.52 2.88,-5.11 v 0 c 2.31,-3.58 11.46,-8.51 18.35,-12.25 v 0 c 5.78,-3.14 11.02,-6.26 11.02,-6.26 v 0 c 1.34,-0.78 2.55,-1.43 2.55,-2.58 v 0 c 0,-1.4 0.59,-3.08 1.35,-3.73 v 0 c 0.76,-0.67 2.15,-1.33 3.09,-1.5 v 0 c 0.93,-0.16 1.68,-1.15 1.68,-1.15 v 0 c 0,0 2.14,-3.25 2.13,-3.69 v 0 c -0.02,-1.67 -4.44,-3.07 -11.12,-3.83 v 0 l -0.13,-5.41 c 1.94,-0.59 3.09,-1.28 3.07,-2.02 v 0 -5.38 c 0,0 -5.07,-2.81 -11.83,-3.11 v 0 c -2.42,0 -6.33,0 -8.67,0.12"
             id="top"
             style="fill:url(#linearGradient58023)" />
          <path
             d="m 642.45,128.1 c -15.04,7.24 -22.43,10.89 -23.5,18.67 v 0 c -1.07,7.78 -2.22,15.42 -2.22,15.42 v 0 c 0.93,-5.6 11.84,-12.19 22.76,-17.5 v 0 c 10.92,-5.3 18.74,-8.75 18.23,-14.51 v 0 c -0.45,-5.14 -1.54,-12.22 -1.77,-13.67 v 0 c 0.08,1.08 -0.57,5.38 -13.49,11.6"
             id="middle"
             style="fill:url(#linearGradient58025)" />
          <path
             d="m 640.26,162.25 c -20.34,9.48 -25.38,12.09 -25.97,17.91 v 0 c -0.51,5.01 -1.68,15.57 -2,18.42 v 0 c 0.39,-1.55 2.49,-5.54 13.28,-11.4 v 0 c 14.1,-7.67 36.69,-14.04 36.14,-22.06 v 0 c -0.54,-8.02 -2.06,-18.59 -2.06,-18.59 v 0 c 0,0 0.94,6.24 -19.4,15.73"
             id="bottom"
             style="fill:url(#linearGradient58027)" />
        </g>
        <path
           id="flare"
           style="opacity:0.5;fill:#ffffff;fill-opacity:1;fill-rule:nonzero;stroke:none"
           d="M 619.38347 54.298164 C 628.26796 61.587533 634.1219 67.28965 637.12076 69.321014 C 630.18465 69.062056 610.72992 71.861561 571.21779 74.981283 C 610.00165 71.9194 629.65062 71.708965 636.75587 70.344491 C 633.45159 73.488127 627.20596 81.84217 617.06953 91.819691 C 626.923 82.123925 635.1265 76.227186 638.51803 72.907631 C 636.6509 80.446716 634.98735 100.65493 629.19104 139.13989 C 635.24783 98.925417 639.41404 79.191955 639.7106 72.142249 C 641.96929 76.285082 649.96423 85.848137 659.37914 100.72838 C 650.82559 87.209527 646.13907 76.814138 643.19932 72.115549 C 650.794 76.587195 671.23662 85.356631 708.13221 103.81661 C 669.23301 84.354162 650.0114 73.484248 642.69203 70.584785 C 648.17749 70.027607 661.43797 66.240944 680.94334 63.251356 C 661.99402 66.155718 648.55186 66.465645 642.82553 67.514356 C 645.7811 65.317679 650.80771 60.854334 658.06197 54.298164 L 656.16632 54.298164 C 649.38381 60.008058 644.84743 63.93077 642.34494 66.473081 C 643.18262 63.981964 644.26978 59.455982 645.53106 54.298164 L 643.65321 54.298164 C 641.48104 59.881099 639.70714 64.423578 639.11431 66.802373 C 638.4632 64.300478 636.96203 60.120067 634.76231 54.298164 L 633.25825 54.298164 C 635.05257 59.488242 636.4907 63.48525 637.60135 65.947993 C 634.37872 63.549273 628.07939 59.905651 620.02426 54.298164 L 619.38347 54.298164 z M 639.6661 69.312115 C 639.68829 69.329866 639.70642 69.331728 639.7284 69.347714 C 639.76873 69.339561 639.79199 69.350608 639.8352 69.338814 C 639.84461 69.365052 639.84994 69.392062 639.8619 69.418912 C 639.88465 69.43187 639.91055 69.434602 639.93309 69.445612 C 639.91831 69.484112 639.92664 69.506981 639.91529 69.543509 C 639.93134 69.571369 639.92339 69.595104 639.94199 69.623607 C 639.92739 69.635743 639.91199 69.646069 639.89749 69.659207 C 639.89157 69.686935 639.89228 69.712837 639.8886 69.739305 C 639.84663 69.736659 639.82962 69.748583 639.7907 69.748204 C 639.76847 69.772539 639.74149 69.7748 639.7195 69.801603 C 639.69893 69.789598 639.67923 69.777545 639.6572 69.766004 C 639.62867 69.768241 639.60363 69.771144 639.5771 69.774904 C 639.5679 69.740761 639.55155 69.726624 639.5415 69.694806 C 639.51402 69.682992 639.49961 69.670462 639.4703 69.659207 C 639.47589 69.635777 639.48351 69.613092 639.4881 69.588008 C 639.47793 69.56198 639.46338 69.540954 639.45251 69.51681 C 639.48133 69.49801 639.48826 69.473684 639.5148 69.454511 C 639.51862 69.415585 639.53957 69.398757 639.5415 69.356614 C 639.57102 69.3551 639.59902 69.35175 639.6305 69.347714 C 639.64336 69.336366 639.65397 69.323591 639.6661 69.312115 z M 639.6305 69.347714 C 639.59026 69.383218 639.56226 69.420234 639.5148 69.454511 C 639.50967 69.50683 639.49664 69.541443 639.4881 69.588008 C 639.50336 69.62705 639.52782 69.651492 639.5415 69.694806 C 639.58848 69.715001 639.61549 69.744161 639.6572 69.766004 C 639.70488 69.762267 639.73736 69.747686 639.7907 69.748204 C 639.82545 69.710156 639.86213 69.691259 639.89749 69.659207 C 639.90611 69.618906 639.90194 69.586507 639.91529 69.543509 C 639.88954 69.498784 639.88108 69.462018 639.8619 69.418912 C 639.81638 69.392996 639.7748 69.381461 639.7284 69.347714 C 639.69161 69.35515 639.66492 69.3433 639.6305 69.347714 z " />
      </g>
    </g>
  </g>
</svg>
