<?xml version="1.0" encoding="UTF-8" standalone="no"?>
<svg
   id="Capa_1"
   enable-background="new 0 0 510 510"
   height="32"
   viewBox="0 0 31.875 31.875"
   width="32"
   version="1.1"
   sodipodi:docname="remote.svg"
   inkscape:version="1.2.1 (9c6d41e4, 2022-07-14)"
   xmlns:inkscape="http://www.inkscape.org/namespaces/inkscape"
   xmlns:sodipodi="http://sodipodi.sourceforge.net/DTD/sodipodi-0.dtd"
   xmlns:xlink="http://www.w3.org/1999/xlink"
   xmlns="http://www.w3.org/2000/svg"
   xmlns:svg="http://www.w3.org/2000/svg">
  <defs
     id="defs50" />
  <sodipodi:namedview
     id="namedview48"
     pagecolor="#ffffff"
     bordercolor="#000000"
     borderopacity="0.25"
     inkscape:showpageshadow="2"
     inkscape:pageopacity="0.0"
     inkscape:pagecheckerboard="0"
     inkscape:deskcolor="#d1d1d1"
     showgrid="false"
     inkscape:zoom="7.375"
     inkscape:cx="15.932203"
     inkscape:cy="16"
     inkscape:window-width="1280"
     inkscape:window-height="430"
     inkscape:window-x="0"
     inkscape:window-y="880"
     inkscape:window-maximized="0"
     inkscape:current-layer="Capa_1" />
  <linearGradient
     id="lg1">
    <stop
       offset="0"
       stop-color="#60b7ff"
       id="stop2" />
    <stop
       offset=".5857"
       stop-color="#0182fc"
       id="stop4" />
    <stop
       offset="1"
       stop-color="#2740b0"
       id="stop6" />
  </linearGradient>
  <linearGradient
     id="SVGID_1_"
     gradientUnits="userSpaceOnUse"
     x1="-8.2600002"
     x2="617.21399"
     xlink:href="#lg1"
     y1="260.12799"
     y2="260.12799" />
  <linearGradient
     id="SVGID_2_"
     gradientUnits="userSpaceOnUse"
     x1="-122"
     x2="547.31897"
     xlink:href="#lg1"
     y1="248.51601"
     y2="248.51601" />
  <linearGradient
     id="SVGID_3_"
     gradientUnits="userSpaceOnUse"
     x1="-36.014999"
     x2="516.64099"
     xlink:href="#lg1"
     y1="255"
     y2="255" />
  <linearGradient
     id="lg2">
    <stop
       offset="0"
       stop-color="#a2e62e"
       id="stop12" />
    <stop
       offset=".5857"
       stop-color="#81b823"
       id="stop14" />
    <stop
       offset="1"
       stop-color="#037e73"
       id="stop16" />
  </linearGradient>
  <linearGradient
     id="SVGID_4_"
     gradientUnits="userSpaceOnUse"
     x1="7"
     x2="531.07703"
     xlink:href="#lg2"
     y1="226"
     y2="226" />
  <linearGradient
     id="SVGID_5_"
     gradientUnits="userSpaceOnUse"
     x1="7"
     x2="531.07703"
     xlink:href="#lg2"
     y1="392.20801"
     y2="392.20801" />
  <linearGradient
     id="SVGID_6_"
     gradientUnits="userSpaceOnUse"
     x1="7"
     x2="531.07703"
     xlink:href="#lg2"
     y1="277.50699"
     y2="277.50699" />
  <linearGradient
     id="SVGID_7_"
     gradientUnits="userSpaceOnUse"
     x1="176"
     x2="404.68201"
     xlink:href="#lg2"
     y1="277.50699"
     y2="277.50699" />
  <linearGradient
     id="SVGID_8_"
     gradientUnits="userSpaceOnUse"
     x1="-7.8699999"
     x2="464.655"
     xlink:href="#lg2"
     y1="226"
     y2="226" />
  <linearGradient
     id="SVGID_9_"
     gradientUnits="userSpaceOnUse"
     x1="-39.368"
     x2="307.32199"
     xlink:href="#lg2"
     y1="392.20801"
     y2="392.20801" />
  <g
     id="g45"
     transform="scale(0.0625)">
    <path
       d="M 510,255 C 510,395.833 395.833,510 255,510 211.477,510 170.501,499.096 134.654,479.872 105.144,464.046 89.871,442.581 68.754,416.918 48.823,392.697 22.513,364.735 12.553,334.246 4.406,309.302 0,282.665 0,255 0,207.921 12.758,163.822 35.006,125.971 79.31,50.595 161.246,18.72 255,18.72 c 28.051,0 55.044,-14.19 80.288,-5.823 C 436.783,46.538 510,142.219 510,255 Z"
       fill="url(#SVGID_1_)"
       id="path25"
       style="fill:url(#SVGID_1_)" />
    <path
       d="m 311.751,35.908 c -25.666,-8.683 -53.164,-13.392 -81.762,-13.392 -59.498,0 -109.168,25.446 -152.549,59.602 -13.443,13.795 -30.4,24.042 -40.462,40.589 -10.062,16.547 -18.293,34.33 -24.413,53.07 1.087,1.319 2.31,2.552 3.699,3.649 6.401,5.054 14.904,6.577 22.661,4.059 l 69.373,-22.524 c 8.401,-2.728 17.621,-0.513 23.866,5.733 l 16.665,16.665 c 6.748,6.748 8.743,16.907 5.049,25.706 -5.323,12.679 1.333,27.198 14.413,31.441 l 20.05,6.503 c 3.023,0.98 5.67,2.872 7.577,5.414 5.037,6.717 3.774,16.229 -2.842,21.398 l -8.106,6.333 c -7.562,5.908 -11.982,14.97 -11.982,24.567 v 7.16 c 0,12.292 6.051,23.795 16.18,30.759 l 13.909,9.562 c 1.263,0.868 2.678,1.491 4.172,1.836 l 8.206,1.894 c 17.309,3.994 30.569,17.924 33.708,35.408 1.202,6.695 0.849,13.576 -1.032,20.113 l -13.658,47.479 c -2.245,7.804 3.613,15.585 11.734,15.585 3.075,0 6.036,-1.16 8.293,-3.248 l 52.325,-48.42 c 7.374,-6.823 13.363,-15.004 17.641,-24.094 l 11.683,-24.826 c 3.864,-8.211 6.269,-17.032 7.108,-26.069 l 4.543,-48.968 c 1.98,-21.341 -7.327,-42.167 -24.548,-54.928 -10.562,-7.826 -23.359,-12.051 -36.504,-12.051 h -9.362 c -13.934,0 -25.682,-10.384 -27.394,-24.212 -1.236,-9.983 3.057,-19.848 11.205,-25.748 l 10.347,-7.492 c 3.578,-2.591 7.726,-4.285 12.095,-4.941 l 25.383,-3.808 c 17.628,-2.644 33.018,-13.349 41.629,-28.957 11.145,-20.2 11.711,-44.572 1.518,-65.268 -8.243,-16.734 -22.748,-29.601 -40.418,-35.579 z"
       fill="url(#SVGID_2_)"
       id="path27"
       style="fill:url(#SVGID_2_)" />
    <path
       d="M 255,0 C 248.265,0 241.593,0.266 234.99,0.778 366.469,10.984 469.98,120.902 469.98,255 c 0,134.098 -103.511,244.016 -234.99,254.222 6.603,0.512 13.275,0.778 20.01,0.778 73.476,0 139.694,-31.076 186.227,-80.802 C 441.227,429.198 508,322.356 508,255 508,205.85 472.003,121.012 472.003,121.012 427.064,48.384 346.682,0 255,0 Z"
       fill="url(#SVGID_3_)"
       id="path29"
       style="fill:url(#SVGID_3_)" />
    <g
       id="g37">
      <path
         d="M 377.179,48.97 C 368.937,32.236 354.432,19.37 336.762,13.392 311.096,4.708 283.598,0 255,0 161.522,0 79.794,50.299 35.4,125.308 c -6.226,10.52 -3.718,24.026 5.876,31.602 6.401,5.054 14.904,6.577 22.661,4.059 l 69.373,-22.524 c 8.401,-2.728 17.621,-0.513 23.866,5.733 l 16.665,16.665 c 6.748,6.748 8.743,16.907 5.049,25.706 -5.323,12.679 1.333,27.198 14.413,31.441 l 20.05,6.503 c 3.023,0.981 5.67,2.872 7.577,5.414 5.037,6.717 3.774,16.229 -2.842,21.398 l -8.106,6.333 C 202.42,263.547 198,272.609 198,282.206 v 7.16 c 0,12.291 6.051,23.795 16.18,30.759 l 13.909,9.562 c 1.263,0.868 2.678,1.491 4.172,1.836 l 8.206,1.894 c 17.309,3.994 30.569,17.924 33.708,35.408 1.202,6.695 0.849,13.576 -1.032,20.113 l -13.658,47.479 c -2.245,7.805 3.613,15.585 11.734,15.585 3.075,0 6.036,-1.16 8.293,-3.248 l 52.325,-48.42 c 7.374,-6.824 13.363,-15.004 17.641,-24.095 l 11.683,-24.826 c 3.864,-8.211 6.269,-17.032 7.108,-26.068 l 4.543,-48.968 c 1.98,-21.341 -7.327,-42.167 -24.548,-54.928 -10.562,-7.826 -23.359,-12.051 -36.504,-12.051 h -9.362 c -13.934,0 -25.682,-10.384 -27.394,-24.212 -1.236,-9.983 3.057,-19.848 11.205,-25.748 l 10.347,-7.492 c 3.578,-2.591 7.726,-4.285 12.095,-4.941 l 25.383,-3.808 c 17.628,-2.644 33.018,-13.349 41.629,-28.957 11.143,-20.202 11.71,-44.574 1.516,-65.27 z"
         fill="url(#SVGID_4_)"
         id="path31"
         style="fill:url(#SVGID_4_)" />
      <path
         d="M 103.422,379.35 C 86.081,370.741 72.431,356.16 64.982,338.29 l -8.093,-19.415 c -3.308,-7.936 -10.689,-13.43 -19.24,-14.322 -16.97,-1.77 -30.1,14.574 -24.73,30.769 20.694,62.401 64.841,114.103 121.995,144.672 l 3.697,-37.025 c 2.641,-26.46 -11.371,-51.794 -35.189,-63.619 z"
         fill="url(#SVGID_5_)"
         id="path33"
         style="fill:url(#SVGID_5_)" />
      <path
         d="m 471.989,121.021 -1.597,2.994 c -13.454,25.227 -9.758,56.166 9.26,77.513 11.174,12.542 17.348,28.753 17.348,45.55 0,19.659 -8.449,38.369 -23.197,51.368 l -19.946,17.582 c -12.963,11.426 -20.389,27.872 -20.389,45.151 v 5.218 c 0,10.233 -2.609,20.297 -7.58,29.241 l -8.885,15.984 c -2.239,4.028 -2.511,8.859 -0.737,13.113 4.218,10.119 17.458,12.457 24.95,4.452 C 483.875,383.605 510,322.357 510,255 510,205.849 496.081,159.956 471.989,121.021 Z"
         fill="url(#SVGID_6_)"
         id="path35"
         style="fill:url(#SVGID_6_)" />
    </g>
    <path
       d="m 471.989,121.021 -1.597,2.994 c -13.454,25.227 -9.758,56.166 9.26,77.513 11.174,12.542 17.348,28.753 17.348,45.55 0,19.659 -8.449,38.369 -23.197,51.368 l -9.024,7.954 c -7.665,37.447 -23.534,71.9 -45.655,101.403 l -2.122,3.819 c -2.239,4.028 -2.511,8.859 -0.737,13.113 4.218,10.119 17.458,12.457 24.95,4.452 C 483.875,383.605 510,322.357 510,255 510,205.849 496.081,159.956 471.989,121.021 Z"
       fill="url(#SVGID_7_)"
       id="path39"
       style="fill:url(#SVGID_7_)" />
    <path
       d="m 286.208,159.436 10.347,-7.492 c 3.578,-2.591 7.726,-4.285 12.095,-4.941 l 25.383,-3.808 c 17.628,-2.644 33.018,-13.349 41.629,-28.957 11.145,-20.2 11.711,-44.572 1.518,-65.268 C 368.938,32.236 354.433,19.37 336.763,13.392 311.096,4.708 283.598,0 255,0 c -6.738,0 -13.412,0.27 -20.018,0.783 21.439,1.664 42.136,5.97 61.76,12.609 17.67,5.978 32.175,18.844 40.417,35.578 10.194,20.696 9.627,45.068 -1.518,65.268 -8.611,15.608 -24.001,26.313 -41.629,28.957 l -25.383,3.808 c -4.369,0.655 -8.517,2.35 -12.095,4.941 l -10.347,7.492 c -8.147,5.9 -12.44,15.765 -11.205,25.748 1.712,13.828 13.46,24.212 27.394,24.212 h 9.362 c 13.145,0 25.943,4.225 36.504,12.051 17.22,12.76 26.528,33.586 24.548,54.928 l -4.543,48.968 c -0.838,9.036 -3.244,17.857 -7.108,26.068 l -11.683,24.826 c -4.278,9.09 -10.267,17.271 -17.641,24.095 l -29.915,27.682 -2.417,8.4 c -2.245,7.805 3.613,15.585 11.734,15.585 3.075,0 6.036,-1.16 8.293,-3.248 l 52.325,-48.42 c 7.374,-6.824 13.363,-15.004 17.641,-24.095 l 11.683,-24.826 c 3.864,-8.211 6.269,-17.032 7.108,-26.068 l 4.543,-48.968 c 1.98,-21.341 -7.327,-42.167 -24.548,-54.928 -10.562,-7.826 -23.359,-12.051 -36.504,-12.051 h -9.362 c -13.934,0 -25.682,-10.384 -27.394,-24.212 -1.235,-9.983 3.058,-19.847 11.206,-25.747 z"
       fill="url(#SVGID_8_)"
       id="path41"
       style="fill:url(#SVGID_8_)" />
    <path
       d="M 103.422,379.35 C 86.081,370.741 72.431,356.16 64.982,338.29 l -8.093,-19.415 c -3.308,-7.936 -10.689,-13.43 -19.24,-14.322 -5.574,-0.582 -10.728,0.801 -14.954,3.481 4.036,2.538 7.284,6.283 9.183,10.841 l 8.093,19.415 c 7.449,17.87 21.099,32.45 38.44,41.06 23.818,11.825 37.83,37.158 35.188,63.619 l -2.266,22.699 c 7.58,5.179 15.443,9.974 23.581,14.326 l 3.697,-37.025 c 2.641,-26.46 -11.371,-51.794 -35.189,-63.619 z"
       fill="url(#SVGID_9_)"
       id="path43"
       style="fill:url(#SVGID_9_)" />
  </g>
</svg>
