<?xml version="1.0" encoding="UTF-8" standalone="no"?>
<svg
   id="Capa_1"
   enable-background="new 0 0 512 512"
   height="32"
   viewBox="0 0 32 32"
   width="32"
   version="1.1"
   sodipodi:docname="smallQA.svg"
   inkscape:version="1.2.1 (9c6d41e4, 2022-07-14)"
   xmlns:inkscape="http://www.inkscape.org/namespaces/inkscape"
   xmlns:sodipodi="http://sodipodi.sourceforge.net/DTD/sodipodi-0.dtd"
   xmlns="http://www.w3.org/2000/svg"
   xmlns:svg="http://www.w3.org/2000/svg">
  <defs
     id="defs11" />
  <sodipodi:namedview
     id="namedview9"
     pagecolor="#ffffff"
     bordercolor="#000000"
     borderopacity="0.25"
     inkscape:showpageshadow="2"
     inkscape:pageopacity="0.0"
     inkscape:pagecheckerboard="0"
     inkscape:deskcolor="#d1d1d1"
     showgrid="false"
     inkscape:zoom="7.375"
     inkscape:cx="15.932203"
     inkscape:cy="16"
     inkscape:window-width="1280"
     inkscape:window-height="430"
     inkscape:window-x="0"
     inkscape:window-y="880"
     inkscape:window-maximized="0"
     inkscape:current-layer="Capa_1" />
  <g
     id="g6"
     transform="matrix(0.06249998,0,0,0.06249998,-2.5264406e-4,-1.1787455e-4)">
    <path
       d="M 490.512,150.839 438.241,119.565 426.464,70.815 C 421.235,49.194 401.21,34.78 379.252,36.508 L 319.442,41.137 285.18,10.801 C 268.305,-3.598 243.754,-3.598 226.821,10.786 l -34.263,30.35 -59.81,-4.629 c -21.709,-1.523 -41.997,12.7 -46.67,32.534 -0.967,3.006 -18.434,57.301 -17.3,53.774 l -47.282,28.008 c -18.94,11.631 -26.528,34.98 -18.047,55.518 l 20.405,49.453 -20.39,49.439 c -8.496,20.552 -0.894,43.887 18.032,55.503 l 52.218,31.055 11.821,48.97 c 5.2,21.606 25.137,35.947 47.212,34.307 l 59.165,-4.57 34.907,30.692 c 8.453,7.206 18.81,10.81 29.181,10.81 10.356,0 20.728,-3.604 29.18,-10.811 l 34.907,-30.692 59.165,4.57 c 22.354,1.772 42.012,-12.686 47.212,-34.307 l 11.777,-48.75 52.271,-31.274 c 18.911,-11.616 26.499,-34.951 18.032,-55.503 l -20.405,-49.438 20.42,-49.468 c 8.467,-20.522 0.879,-43.872 -18.047,-55.488 z M 256,421 C 165.019,421 91,346.981 91,256 91,165.019 165.019,91 256,91 c 90.981,0 165,74.019 165,165 0,90.981 -74.019,165 -165,165 z"
       id="path2" />
    <path
       d="m 256,121 c -74.443,0 -135,60.557 -135,135 0,74.443 60.557,135 135,135 74.443,0 135,-60.557 135,-135 0,-74.443 -60.557,-135 -135,-135 z m 85.605,100.605 -90,90 c -2.93,2.93 -6.768,4.395 -10.605,4.395 -3.837,0 -7.676,-1.465 -10.605,-4.395 l -60,-60 c -5.859,-5.859 -5.859,-15.352 0,-21.211 5.859,-5.859 15.352,-5.859 21.211,0 L 241,279.789 320.395,200.394 c 5.859,-5.859 15.352,-5.859 21.211,0 5.859,5.859 5.859,15.352 -10e-4,21.211 z"
       id="path4" />
  </g>
</svg>
