<?xml version="1.0" encoding="UTF-8" standalone="no"?>
<svg
   id="Capa_1"
   enable-background="new 0 0 512 512"
   height="32"
   viewBox="0 0 32 32"
   width="32"
   version="1.1"
   sodipodi:docname="smallScreenshot.svg"
   inkscape:version="1.2.1 (9c6d41e4, 2022-07-14)"
   xmlns:inkscape="http://www.inkscape.org/namespaces/inkscape"
   xmlns:sodipodi="http://sodipodi.sourceforge.net/DTD/sodipodi-0.dtd"
   xmlns:xlink="http://www.w3.org/1999/xlink"
   xmlns="http://www.w3.org/2000/svg"
   xmlns:svg="http://www.w3.org/2000/svg">
  <defs
     id="defs53">
    <linearGradient
       inkscape:collect="always"
       xlink:href="#linearGradient873"
       id="linearGradient875"
       x1="3.96875"
       y1="1.3229166"
       x2="3.96875"
       y2="7.9375"
       gradientUnits="userSpaceOnUse"
       gradientTransform="matrix(35.193894,0,0,35.193894,105.85306,130.19547)" />
    <linearGradient
       inkscape:collect="always"
       id="linearGradient873">
      <stop
         style="stop-color:#1a98e2;stop-opacity:1;"
         offset="0"
         id="stop869" />
      <stop
         style="stop-color:#a8d9f5;stop-opacity:0;"
         offset="1"
         id="stop871" />
    </linearGradient>
  </defs>
  <sodipodi:namedview
     id="namedview51"
     pagecolor="#ffffff"
     bordercolor="#000000"
     borderopacity="0.25"
     inkscape:showpageshadow="2"
     inkscape:pageopacity="0.0"
     inkscape:pagecheckerboard="0"
     inkscape:deskcolor="#d1d1d1"
     showgrid="false"
     inkscape:zoom="15.96875"
     inkscape:cx="16"
     inkscape:cy="16"
     inkscape:window-width="1280"
     inkscape:window-height="705"
     inkscape:window-x="0"
     inkscape:window-y="25"
     inkscape:window-maximized="0"
     inkscape:current-layer="Capa_1" />
  <g
     id="g48"
     transform="matrix(0.0625,0,0,0.0625,0,-2.754625)">
    <g
       id="g6">
      <path
         d="m 378.69,115.391 -40.184,30.905 H 154.385 L 133.31,115.391 174.719,54.732 c 4.552,-6.668 12.105,-10.657 20.179,-10.657 h 122.204 c 8.074,0 15.626,3.989 20.178,10.657 z"
         fill="#9b9b9b"
         id="path2" />
    </g>
    <g
       id="g12">
      <path
         d="m 512,167.858 v 250.715 c 0,11.919 -9.653,21.572 -21.572,21.572 H 21.572 C 9.653,440.145 0,430.492 0,418.573 V 167.858 c 0,-11.909 9.653,-21.562 21.572,-21.562 h 468.856 c 11.919,0 21.572,9.653 21.572,21.562 z"
         fill="#595959"
         id="path8" />
      <path
         d="m 490.428,146.296 h -24.622 c 11.919,0 21.572,9.653 21.572,21.562 v 250.715 c 0,11.919 -9.653,21.572 -21.572,21.572 h 24.622 c 11.919,0 21.572,-9.653 21.572,-21.572 V 167.858 c 0,-11.909 -9.653,-21.562 -21.572,-21.562 z"
         fill="#454545"
         id="path10" />
      <path
         d="m 22.407355,146.296 h 24.622 c -11.919,0 -21.572,9.653 -21.572,21.562 v 250.715 c 0,11.919 9.653,21.572 21.572,21.572 h -24.622 c -11.919001,0 -21.57200105,-9.653 -21.57200105,-21.572 V 167.858 c 0,-11.909 9.65300005,-21.562 21.57200105,-21.562 z"
         fill="#454545"
         id="path2073" />
    </g>
    <path
       d="M 454.919,467.926 H 57.08 c -9.131,0 -16.533,-7.402 -16.533,-16.533 v -11.249 h 430.905 v 11.249 c 10e-4,9.131 -7.402,16.533 -16.533,16.533 z"
       fill="#454545"
       id="path14" />
    <path
       d="m 512,136.952 v 47.079 H 0 V 136.952 C 0,125.043 9.653,115.39 21.572,115.39 h 468.856 c 11.919,0.001 21.572,9.653 21.572,21.562 z"
       fill="#f4fbff"
       id="path16"
       style="fill:#454545;fill-opacity:1" />
    <g
       id="g22">
      <path
         d="m 459.381,157.438 h -24.013 c -4.268,0 -7.726,-3.459 -7.726,-7.726 0,-4.268 3.459,-7.726 7.726,-7.726 h 24.013 c 4.268,0 7.726,3.459 7.726,7.726 0,4.267 -3.458,7.726 -7.726,7.726 z"
         fill="#454545"
         id="path20"
         style="fill:#9b9b9b;fill-opacity:1" />
    </g>
    <path
       d="M 105.835,115.391 H 42.011 V 99.019 c 0,-6.523 5.288,-11.812 11.812,-11.812 h 40.201 c 6.523,0 11.812,5.288 11.812,11.812 v 16.372 z"
       fill="#9b9b9b"
       id="path24" />
    <circle
       cx="256"
       cy="279.18301"
       fill="#9b9b9b"
       r="163.79301"
       id="circle26"
       style="stroke-width:1.2401" />
    <circle
       cx="256"
       cy="279.18301"
       fill="#d3effb"
       r="121.05686"
       id="circle30"
       style="stroke-width:1.2401" />
    <circle
       style="display:inline;fill:url(#linearGradient875);fill-opacity:1;stroke:#ffffff;stroke-width:0;stroke-linecap:square;stroke-dasharray:none;stroke-opacity:1;stop-color:#000000"
       id="path512"
       cx="254.8405"
       cy="279.18301"
       r="122.21636" />
    <g
       id="g46" />
  </g>
</svg>
