<?xml version="1.0" encoding="UTF-8" standalone="no"?>
<svg
   id="Flat-Avatar"
   height="32"
   viewBox="0 0 32 32"
   width="32"
   version="1.1"
   sodipodi:docname="user.svg"
   inkscape:version="1.2.1 (9c6d41e4, 2022-07-14)"
   xmlns:inkscape="http://www.inkscape.org/namespaces/inkscape"
   xmlns:sodipodi="http://sodipodi.sourceforge.net/DTD/sodipodi-0.dtd"
   xmlns="http://www.w3.org/2000/svg"
   xmlns:svg="http://www.w3.org/2000/svg">
  <defs
     id="defs22" />
  <sodipodi:namedview
     id="namedview20"
     pagecolor="#ffffff"
     bordercolor="#000000"
     borderopacity="0.25"
     inkscape:showpageshadow="2"
     inkscape:pageopacity="0.0"
     inkscape:pagecheckerboard="0"
     inkscape:deskcolor="#d1d1d1"
     showgrid="false"
     inkscape:zoom="0.4609375"
     inkscape:cx="-98.711864"
     inkscape:cy="256"
     inkscape:window-width="1280"
     inkscape:window-height="430"
     inkscape:window-x="0"
     inkscape:window-y="25"
     inkscape:window-maximized="0"
     inkscape:current-layer="Flat-Avatar" />
  <g
     id="avatar_man_people_user_profile"
     data-name="avatar man people user profile"
     transform="scale(0.0625)">
    <path
       d="M 367.2735,89.354 V 63.451 C 367.2735,46.081 351.917,32 332.9735,32 H 216.5429 c -39.9836,0 -72.8636,27.8818 -76.7813,63.5981 a 58.1772,58.1772 0 0 0 -8.7764,41.5733 l 4.9671,29.6554 h 240.0971 l 4.93,-29.1553 c 3.0467,-18.0129 -2.5356,-35.1961 -13.7059,-48.3175 z"
       fill="#3d3c3b"
       id="path2" />
    <path
       d="M 334.6275,353.3705 H 177.3725 A 78.6272,78.6272 0 0 0 98.745,431.9981 c 0,17.3687 3.5052,25.504 31.451,31.451 0,0 94.0823,16.5509 125.804,16.5509 31.7217,0 125.804,-16.5509 125.804,-16.5509 27.9458,-5.947 31.451,-14.0823 31.451,-31.451 a 78.6272,78.6272 0 0 0 -78.6275,-78.6276 z"
       fill="#899def"
       id="path4" />
    <path
       d="M 256,400.5471 A 47.1765,47.1765 0 0 1 208.8235,353.3706 V 321.92 h 94.353 v 31.451 A 47.1765,47.1765 0 0 1 256,400.5471 Z"
       fill="#ffd5b3"
       id="path6" />
    <path
       d="m 208.8235,353.1694 c 12.92,5.9508 28.3863,9.6365 47.1765,9.6365 18.7902,0 34.2565,-3.6857 47.1765,-9.6365 v -21.8145 h -94.353 z"
       fill="#f4bda2"
       id="path8" />
    <path
       d="m 364.8434,252.4372 a 7.93,7.93 0 0 1 6.51,-6.5068 31.7307,31.7307 0 0 0 26.1766,-30.9442 v -23.5883 a 31.7363,31.7363 0 0 0 -26.3607,-30.9763 8.0118,8.0118 0 0 1 -6.4761,-6.1779 63.1137,63.1137 0 0 0 -61.5162,-49.3361 h -94.353 a 63.1137,63.1137 0 0 0 -61.5162,49.3361 8.0118,8.0118 0 0 1 -6.4761,6.1779 31.7363,31.7363 0 0 0 -26.3607,30.9763 v 23.5883 a 31.7307,31.7307 0 0 0 26.1758,30.9438 7.93,7.93 0 0 1 6.51,6.5068 c 5.5062,34.3591 27.0811,96.2157 108.8434,96.2157 81.7623,0 103.337,-61.8562 108.8432,-96.2153 z"
       fill="#ffd5b3"
       id="path10" />
    <g
       fill="#3d3c3b"
       id="g16">
      <circle
         cx="207.651"
         cy="195.812"
         r="15.664"
         transform="matrix(0.707,-0.707,0.707,0.707,-77.641,204.183)"
         id="circle12" />
      <circle
         cx="304.35599"
         cy="195.812"
         r="15.664"
         transform="matrix(0.707,-0.707,0.707,0.707,-49.316,272.564)"
         id="circle14" />
    </g>
  </g>
</svg>
